<svg width="72" height="72" viewBox="0 0 72 72" fill="none" xmlns="http://www.w3.org/2000/svg">
<path d="M36 3.9375C27.4995 3.94715 19.3498 7.32826 13.3391 13.3391C7.32826 19.3498 3.94715 27.4995 3.9375 36C5.69888 78.5352 66.3076 78.5229 68.0626 35.9997C68.0528 27.4992 64.6717 19.3497 58.6609 13.3389C52.6501 7.32821 44.5005 3.94715 36 3.9375ZM36 64.6875C28.3943 64.6788 21.1025 61.6536 15.7245 56.2755C10.3464 50.8975 7.32117 43.6057 7.3125 36C8.88863 -2.0578 63.1171 -2.04676 64.6876 36.0002C64.6788 43.6059 61.6536 50.8976 56.2755 56.2756C50.8974 61.6536 43.6057 64.6788 36 64.6875Z" fill="#049C6B"/>
<path d="M48.3071 24.3064L33.0004 39.6131L25.9433 32.5566C25.6253 32.2477 25.1985 32.0764 24.7552 32.0797C24.312 32.0829 23.8878 32.2604 23.5743 32.5739C23.2609 32.8874 23.0833 33.3116 23.0801 33.7548C23.0769 34.1981 23.2482 34.6249 23.5571 34.9429L31.8073 43.1929C32.125 43.507 32.5537 43.6832 33.0005 43.6832C33.4472 43.6832 33.8759 43.507 34.1936 43.1929L50.6933 26.6926C51.0015 26.3744 51.1722 25.9479 51.1686 25.505C51.1651 25.0622 50.9876 24.6384 50.6744 24.3253C50.3612 24.0121 49.9375 23.8346 49.4946 23.8311C49.0517 23.8276 48.6252 23.9983 48.3071 24.3064Z" fill="#049C6B"/>
</svg>
