<svg width="32" height="32" viewBox="0 0 32 32" fill="none" xmlns="http://www.w3.org/2000/svg">
<path d="M17.3332 6.66634C17.3332 5.92996 16.7362 5.33301 15.9998 5.33301C15.2635 5.33301 14.6665 5.92996 14.6665 6.66634C14.6665 7.40272 15.2635 7.99967 15.9998 7.99967C16.7362 7.99967 17.3332 7.40272 17.3332 6.66634Z" stroke="black" stroke-width="2" stroke-linecap="round" stroke-linejoin="round"/>
<path d="M17.3332 15.9997C17.3332 15.2633 16.7362 14.6663 15.9998 14.6663C15.2635 14.6663 14.6665 15.2633 14.6665 15.9997C14.6665 16.7361 15.2635 17.333 15.9998 17.333C16.7362 17.333 17.3332 16.7361 17.3332 15.9997Z" stroke="black" stroke-width="2" stroke-linecap="round" stroke-linejoin="round"/>
<path d="M17.3332 25.333C17.3332 24.5966 16.7362 23.9997 15.9998 23.9997C15.2635 23.9997 14.6665 24.5966 14.6665 25.333C14.6665 26.0694 15.2635 26.6663 15.9998 26.6663C16.7362 26.6663 17.3332 26.0694 17.3332 25.333Z" stroke="black" stroke-width="2" stroke-linecap="round" stroke-linejoin="round"/>
</svg>
