<svg width="28" height="28" viewBox="0 0 28 28" fill="none" xmlns="http://www.w3.org/2000/svg">
<path d="M9.19984 20.667L13.9998 15.867L18.7998 20.667L20.6665 18.8003L15.8665 14.0003L20.6665 9.20033L18.7998 7.33366L13.9998 12.1337L9.19984 7.33366L7.33317 9.20033L12.1332 14.0003L7.33317 18.8003L9.19984 20.667ZM13.9998 27.3337C12.1554 27.3337 10.4221 26.9837 8.79984 26.2837C7.17762 25.5837 5.7665 24.6337 4.5665 23.4337C3.3665 22.2337 2.4165 20.8225 1.7165 19.2003C1.0165 17.5781 0.666504 15.8448 0.666504 14.0003C0.666504 12.1559 1.0165 10.4225 1.7165 8.80033C2.4165 7.1781 3.3665 5.76699 4.5665 4.56699C5.7665 3.36699 7.17762 2.41699 8.79984 1.71699C10.4221 1.01699 12.1554 0.666992 13.9998 0.666992C15.8443 0.666992 17.5776 1.01699 19.1998 1.71699C20.8221 2.41699 22.2332 3.36699 23.4332 4.56699C24.6332 5.76699 25.5832 7.1781 26.2832 8.80033C26.9832 10.4225 27.3332 12.1559 27.3332 14.0003C27.3332 15.8448 26.9832 17.5781 26.2832 19.2003C25.5832 20.8225 24.6332 22.2337 23.4332 23.4337C22.2332 24.6337 20.8221 25.5837 19.1998 26.2837C17.5776 26.9837 15.8443 27.3337 13.9998 27.3337ZM13.9998 24.667C16.9776 24.667 19.4998 23.6337 21.5665 21.567C23.6332 19.5003 24.6665 16.9781 24.6665 14.0003C24.6665 11.0225 23.6332 8.50033 21.5665 6.43366C19.4998 4.36699 16.9776 3.33366 13.9998 3.33366C11.0221 3.33366 8.49984 4.36699 6.43317 6.43366C4.3665 8.50033 3.33317 11.0225 3.33317 14.0003C3.33317 16.9781 4.3665 19.5003 6.43317 21.567C8.49984 23.6337 11.0221 24.667 13.9998 24.667Z" fill="#1D1B20"/>
</svg>
